<svg xmlns="http://www.w3.org/2000/svg" xmlns:xlink="http://www.w3.org/1999/xlink" width="500" zoomAndPan="magnify" viewBox="0 0 375 374.999991" height="500" preserveAspectRatio="xMidYMid meet" version="1.0"><defs><g/><clipPath id="31f4cefaee"><path d="M 141.347656 39 L 306.347656 39 L 306.347656 54 L 141.347656 54 Z M 141.347656 39 " clip-rule="nonzero"/></clipPath><clipPath id="74b4feb16b"><path d="M 154 68 L 294 68 L 294 162.574219 L 154 162.574219 Z M 154 68 " clip-rule="nonzero"/></clipPath></defs><g clip-path="url(#31f4cefaee)"><path fill="#100f0d" d="M 223.847656 46.140625 C 223.847656 46.140625 173.457031 46.140625 141.347656 39.140625 L 146.445312 47.171875 C 178.519531 53.148438 223.847656 53.148438 223.847656 53.148438 C 223.847656 53.148438 269.175781 53.148438 301.25 47.171875 L 306.347656 39.140625 C 274.238281 46.140625 223.847656 46.140625 223.847656 46.140625 " fill-opacity="1" fill-rule="nonzero"/></g><g clip-path="url(#74b4feb16b)"><path fill="#100f0d" d="M 272.097656 68.828125 L 262.539062 68.828125 L 262.539062 78.902344 L 228.628906 78.902344 L 228.628906 68.828125 L 219.066406 68.828125 L 219.066406 78.902344 L 185.15625 78.902344 L 185.15625 68.828125 L 175.597656 68.828125 L 175.597656 78.902344 L 154.503906 78.902344 L 154.503906 88.472656 L 175.597656 88.472656 L 175.597656 162.257812 L 185.15625 162.257812 L 185.15625 93.71875 C 185.15625 90.820312 187.507812 88.472656 190.410156 88.472656 L 257.285156 88.472656 C 260.1875 88.472656 262.539062 90.820312 262.539062 93.71875 L 262.539062 162.257812 L 272.097656 162.257812 L 272.097656 88.472656 L 293.191406 88.472656 L 293.191406 78.902344 L 272.097656 78.902344 L 272.097656 68.828125 " fill-opacity="1" fill-rule="nonzero"/></g><path fill="#100f0d" d="M 152.847656 51.34375 L 154.84375 62.738281 L 292.851562 62.738281 L 294.847656 51.34375 C 263.628906 56.132812 224.273438 56.191406 223.847656 56.191406 C 223.421875 56.191406 184.066406 56.132812 152.847656 51.34375 " fill-opacity="1" fill-rule="nonzero"/><g fill="#242424" fill-opacity="1"><g transform="translate(62.709332, 228.429326)"><g><path d="M 51.125 -73.5 C 49.375 -75.914062 47.351562 -77.8125 45.0625 -79.1875 C 42.769531 -80.5625 40.082031 -81.25 37 -81.25 C 33.832031 -81.25 31.125 -80.207031 28.875 -78.125 C 26.625 -76.039062 25.5 -73.539062 25.5 -70.625 C 25.5 -67.957031 26.601562 -65.6875 28.8125 -63.8125 C 31.019531 -61.9375 34.289062 -60.164062 38.625 -58.5 C 46.125 -55.414062 51.4375 -52.457031 54.5625 -49.625 C 57.6875 -46.789062 59.851562 -43.75 61.0625 -40.5 C 62.269531 -37.25 62.875 -33.664062 62.875 -29.75 C 62.875 -20.164062 60.039062 -12.394531 54.375 -6.4375 C 48.707031 -0.476562 41.207031 2.5 31.875 2.5 C 25.375 2.5 19.726562 0.8125 14.9375 -2.5625 C 10.144531 -5.9375 6.125 -10.375 2.875 -15.875 L 14.75 -27.5 C 16.164062 -23.5 18.457031 -20.207031 21.625 -17.625 C 24.789062 -15.039062 28.164062 -13.75 31.75 -13.75 C 35.25 -13.75 38.144531 -15.019531 40.4375 -17.5625 C 42.726562 -20.101562 43.875 -23.375 43.875 -27.375 C 43.875 -30.875 42.789062 -33.664062 40.625 -35.75 C 38.457031 -37.832031 35.25 -39.707031 31 -41.375 C 21.582031 -44.957031 15.144531 -48.75 11.6875 -52.75 C 8.226562 -56.75 6.5 -62 6.5 -68.5 C 6.5 -73.5 7.664062 -78.164062 10 -82.5 C 12.332031 -86.832031 15.625 -90.289062 19.875 -92.875 C 24.125 -95.457031 28.832031 -96.75 34 -96.75 C 38.582031 -96.75 43.394531 -95.707031 48.4375 -93.625 C 53.476562 -91.539062 57.25 -89.082031 59.75 -86.25 Z M 51.125 -73.5 "/></g></g></g><g fill="#242424" fill-opacity="1"><g transform="translate(120.317404, 228.429326)"><g><path d="M 23.75 -106 L 23.75 -56.25 L 24 -56.25 C 25.914062 -58.75 28.269531 -60.5625 31.0625 -61.6875 C 33.851562 -62.8125 36.832031 -63.375 40 -63.375 C 47.082031 -63.375 52.394531 -61.226562 55.9375 -56.9375 C 59.476562 -52.644531 61.25 -46.332031 61.25 -38 L 61.25 0 L 43.75 0 L 43.75 -35.875 C 43.75 -39.207031 43.394531 -41.8125 42.6875 -43.6875 C 41.976562 -45.5625 41 -46.976562 39.75 -47.9375 C 38.5 -48.894531 36.625 -49.375 34.125 -49.375 C 30.539062 -49.375 27.914062 -47.9375 26.25 -45.0625 C 24.582031 -42.1875 23.75 -37.75 23.75 -31.75 L 23.75 0 L 6.25 0 L 6.25 -106 Z M 23.75 -106 "/></g></g></g><g fill="#242424" fill-opacity="1"><g transform="translate(179.675064, 228.429326)"><g><path d="M 44.375 -45.625 C 42.207031 -47.125 39.789062 -47.875 37.125 -47.875 C 32.625 -47.875 29.269531 -46.351562 27.0625 -43.3125 C 24.851562 -40.269531 23.75 -35.25 23.75 -28.25 L 23.75 0 L 6.25 0 L 6.25 -61.375 L 23.75 -61.375 L 23.75 -55 L 24 -55 C 25.75 -57.664062 27.914062 -59.726562 30.5 -61.1875 C 33.082031 -62.644531 36 -63.375 39.25 -63.375 C 41.664062 -63.289062 44.082031 -62.789062 46.5 -61.875 Z M 44.375 -45.625 "/></g></g></g><g fill="#242424" fill-opacity="1"><g transform="translate(217.412648, 228.429326)"><g><path d="M 5.5 -87.125 C 5.5 -89.875 6.5 -92.289062 8.5 -94.375 C 10.5 -96.457031 12.957031 -97.5 15.875 -97.5 C 18.789062 -97.5 21.25 -96.457031 23.25 -94.375 C 25.25 -92.289062 26.25 -89.875 26.25 -87.125 C 26.25 -84.207031 25.25 -81.75 23.25 -79.75 C 21.25 -77.75 18.789062 -76.75 15.875 -76.75 C 12.957031 -76.75 10.5 -77.75 8.5 -79.75 C 6.5 -81.75 5.5 -84.207031 5.5 -87.125 Z M 24.625 -61.375 L 24.625 0 L 7.125 0 L 7.125 -61.375 Z M 24.625 -61.375 "/></g></g></g><g fill="#242424" fill-opacity="1"><g transform="translate(240.903555, 228.429326)"><g><path d="M 61.25 0 L 43.75 0 L 43.75 -35.5 C 43.75 -40 43.082031 -43.4375 41.75 -45.8125 C 40.414062 -48.1875 37.914062 -49.375 34.25 -49.375 C 30.914062 -49.375 28.332031 -48.0625 26.5 -45.4375 C 24.664062 -42.8125 23.75 -38.25 23.75 -31.75 L 23.75 0 L 6.25 0 L 6.25 -61.375 L 23.75 -61.375 L 23.75 -55.75 L 24 -55.75 C 25.832031 -58.5 28.164062 -60.457031 31 -61.625 C 33.832031 -62.789062 36.832031 -63.375 40 -63.375 C 47.082031 -63.375 52.394531 -61.226562 55.9375 -56.9375 C 59.476562 -52.644531 61.25 -46.332031 61.25 -38 Z M 61.25 0 "/></g></g></g><g fill="#242424" fill-opacity="1"><g transform="translate(300.261215, 228.429326)"><g><path d="M 20.375 -27.875 C 20.375 -22.789062 21.457031 -18.769531 23.625 -15.8125 C 25.789062 -12.851562 28.75 -11.375 32.5 -11.375 C 35.414062 -11.375 37.8125 -12.164062 39.6875 -13.75 C 41.5625 -15.332031 43.082031 -17.332031 44.25 -19.75 L 60.375 -17.125 C 58.207031 -10.875 54.644531 -6.125 49.6875 -2.875 C 44.726562 0.375 39 2 32.5 2 C 23.414062 2 16.039062 -0.957031 10.375 -6.875 C 4.707031 -12.789062 1.875 -20.539062 1.875 -30.125 C 1.875 -40.207031 4.539062 -48.269531 9.875 -54.3125 C 15.207031 -60.351562 22.457031 -63.375 31.625 -63.375 C 40.789062 -63.375 47.9375 -60.414062 53.0625 -54.5 C 58.1875 -48.582031 60.75 -40.207031 60.75 -29.375 L 60.75 -27.875 Z M 44.25 -38.75 C 43.664062 -42.582031 42.289062 -45.601562 40.125 -47.8125 C 37.957031 -50.019531 35.414062 -51.125 32.5 -51.125 C 29.75 -51.125 27.289062 -50.125 25.125 -48.125 C 22.957031 -46.125 21.539062 -43 20.875 -38.75 Z M 44.25 -38.75 "/></g></g></g><g fill="#242424" fill-opacity="1"><g transform="translate(19.355485, 301.608182)"><g><path d="M 35.25 -93.375 C 33.914062 -93.789062 32.769531 -94.125 31.8125 -94.375 C 30.851562 -94.625 29.75 -94.75 28.5 -94.75 C 25.5 -94.75 23.394531 -93.875 22.1875 -92.125 C 20.976562 -90.375 20.375 -87.125 20.375 -82.375 L 20.375 -58.75 L 35.25 -58.75 L 35.25 -49.5 L 20.375 -49.5 L 20.375 0 L 10.375 0 L 10.375 -49.5 L 4.875 -49.5 L 4.875 -58.75 L 10.375 -58.75 L 10.375 -84.875 C 10.375 -89.375 10.976562 -93 12.1875 -95.75 C 13.394531 -98.5 15.375 -100.664062 18.125 -102.25 C 20.875 -103.832031 24.207031 -104.664062 28.125 -104.75 C 29.375 -104.75 30.644531 -104.625 31.9375 -104.375 C 33.226562 -104.125 34.332031 -103.832031 35.25 -103.5 Z M 35.25 -93.375 "/></g></g></g><g fill="#242424" fill-opacity="1"><g transform="translate(45.470731, 301.608182)"><g><path d="M 21.375 -58.75 L 21.375 0 L 11.375 0 L 11.375 -58.75 Z M 9.25 -81.125 C 9.25 -82.957031 9.976562 -84.5625 11.4375 -85.9375 C 12.894531 -87.3125 14.539062 -88 16.375 -88 C 18.289062 -88 19.957031 -87.3125 21.375 -85.9375 C 22.789062 -84.5625 23.5 -82.957031 23.5 -81.125 C 23.5 -78.957031 22.789062 -77.1875 21.375 -75.8125 C 19.957031 -74.4375 18.289062 -73.75 16.375 -73.75 C 14.457031 -73.75 12.789062 -74.414062 11.375 -75.75 C 9.957031 -77.082031 9.25 -78.875 9.25 -81.125 Z M 9.25 -81.125 "/></g></g></g><g fill="#242424" fill-opacity="1"><g transform="translate(70.086367, 301.608182)"><g><path d="M 56.5 0 L 46.5 0 L 46.5 -34.25 C 46.5 -40.164062 45.601562 -44.457031 43.8125 -47.125 C 42.019531 -49.789062 38.789062 -51.125 34.125 -51.125 C 28.789062 -51.125 25.019531 -49.289062 22.8125 -45.625 C 20.601562 -41.957031 19.5 -36.375 19.5 -28.875 L 19.5 0 L 9.5 0 L 9.5 -58.75 L 19.5 -58.75 L 19.5 -51.625 L 19.75 -51.625 C 21.832031 -54.457031 24.226562 -56.625 26.9375 -58.125 C 29.644531 -59.625 32.832031 -60.375 36.5 -60.375 C 43.082031 -60.375 48.0625 -58.351562 51.4375 -54.3125 C 54.8125 -50.269531 56.5 -44 56.5 -35.5 Z M 56.5 0 "/></g></g></g><g fill="#242424" fill-opacity="1"><g transform="translate(127.944417, 301.608182)"><g><path d="M 63.125 -103.125 L 63.125 0 L 53.125 0 L 53.125 -8.125 L 52.875 -8.125 C 50.375 -4.875 47.394531 -2.4375 43.9375 -0.8125 C 40.476562 0.8125 36.707031 1.625 32.625 1.625 C 27.289062 1.625 22.457031 0.226562 18.125 -2.5625 C 13.789062 -5.351562 10.4375 -9.101562 8.0625 -13.8125 C 5.6875 -18.519531 4.5 -23.664062 4.5 -29.25 C 4.5 -35 5.6875 -40.269531 8.0625 -45.0625 C 10.4375 -49.851562 13.789062 -53.601562 18.125 -56.3125 C 22.457031 -59.019531 27.332031 -60.375 32.75 -60.375 C 36.75 -60.375 40.5 -59.5 44 -57.75 C 47.5 -56 50.457031 -53.539062 52.875 -50.375 L 53.125 -50.375 L 53.125 -103.125 Z M 33.875 -51.125 C 28.457031 -51.125 23.914062 -49.0625 20.25 -44.9375 C 16.582031 -40.8125 14.75 -35.832031 14.75 -30 C 14.75 -23.582031 16.539062 -18.25 20.125 -14 C 23.707031 -9.75 28.332031 -7.625 34 -7.625 C 39.832031 -7.625 44.5625 -9.664062 48.1875 -13.75 C 51.8125 -17.832031 53.625 -23.207031 53.625 -29.875 C 53.625 -36.207031 51.769531 -41.332031 48.0625 -45.25 C 44.351562 -49.164062 39.625 -51.125 33.875 -51.125 Z M 33.875 -51.125 "/></g></g></g><g fill="#242424" fill-opacity="1"><g transform="translate(191.926065, 301.608182)"><g><path d="M 60.625 -27.25 L 14.5 -27.25 C 14.664062 -21.414062 16.582031 -16.6875 20.25 -13.0625 C 23.914062 -9.4375 28.414062 -7.625 33.75 -7.625 C 37.5 -7.625 40.8125 -8.582031 43.6875 -10.5 C 46.5625 -12.414062 49.207031 -15.5 51.625 -19.75 L 60.125 -14.875 C 57.289062 -9.625 53.5625 -5.5625 48.9375 -2.6875 C 44.3125 0.1875 39 1.625 33 1.625 C 27.25 1.625 22.164062 0.25 17.75 -2.5 C 13.332031 -5.25 9.976562 -8.9375 7.6875 -13.5625 C 5.394531 -18.1875 4.25 -23.207031 4.25 -28.625 C 4.25 -34.625 5.394531 -40.039062 7.6875 -44.875 C 9.976562 -49.707031 13.289062 -53.5 17.625 -56.25 C 21.957031 -59 27 -60.375 32.75 -60.375 C 38.332031 -60.375 43.269531 -59.019531 47.5625 -56.3125 C 51.851562 -53.601562 55.125 -49.875 57.375 -45.125 C 59.625 -40.375 60.75 -35.039062 60.75 -29.125 C 60.75 -28.539062 60.707031 -27.914062 60.625 -27.25 Z M 50.125 -35.75 C 49.289062 -40.332031 47.25 -44.039062 44 -46.875 C 40.75 -49.707031 37.039062 -51.125 32.875 -51.125 C 28.789062 -51.125 24.957031 -49.644531 21.375 -46.6875 C 17.789062 -43.726562 15.664062 -40.082031 15 -35.75 Z M 50.125 -35.75 "/></g></g></g><g fill="#242424" fill-opacity="1"><g transform="translate(248.659386, 301.608182)"><g><path d="M 36.5 -48.5 C 35.5 -49.25 34.5625 -49.875 33.6875 -50.375 C 32.8125 -50.875 31.75 -51.125 30.5 -51.125 C 26.75 -51.125 23.894531 -49.457031 21.9375 -46.125 C 19.976562 -42.789062 19 -37.414062 19 -30 L 19 0 L 9 0 L 9 -58.75 L 19 -58.75 L 19 -52.375 L 19.25 -52.375 C 21.664062 -55.625 23.8125 -57.769531 25.6875 -58.8125 C 27.5625 -59.851562 29.75 -60.375 32.25 -60.375 C 33.75 -60.375 35.269531 -60.125 36.8125 -59.625 C 38.351562 -59.125 39.832031 -58.457031 41.25 -57.625 Z M 36.5 -48.5 "/></g></g></g></svg>